<?xml version="1.0" encoding="UTF-8"?>
<svg width="700pt" height="700pt" fill='#FFF' version="1.1" viewBox="0 0 700 700" xmlns="http://www.w3.org/2000/svg" xmlns:xlink="http://www.w3.org/1999/xlink">
 
 <g>
  <path d="m103.6 280c15.961 0 22.793 6.2148 34.16 16.801 13.105 11.93 31.023 28 64.289 28s51.238-16.297 64.344-28c11.199-10.359 18.199-16.801 34.16-16.801 15.961 0 22.848 6.2148 34.215 16.801 13.105 11.93 31.023 28 64.344 28 33.32 0 51.297-16.297 64.398-28 11.199-10.305 18.258-16.801 34.273-16.801s22.848 6.2734 34.215 16.801c13.16 11.93 31.078 28 64.398 28 8.0039 0 15.398-4.2695 19.402-11.199 4-6.9336 4-15.473 0-22.402-4.0039-6.9297-11.398-11.199-19.402-11.199-16.016 0-22.848-6.2734-34.273-16.801-13.105-11.93-31.023-28-64.344-28s-51.297 16.297-64.398 28c-11.199 10.305-18.258 16.801-34.273 16.801s-22.848-6.2148-34.215-16.801c-13.105-11.93-31.023-28-64.344-28-33.32 0-51.352 16.297-64.285 28-11.199 10.359-18.258 16.801-34.215 16.801-15.961 0-22.793-6.2148-34.16-16.801-13.051-11.703-31.027-28-64.289-28-8.0039 0-15.398 4.2695-19.402 11.199-4 6.9336-4 15.473 0 22.402 4.0039 6.9297 11.398 11.199 19.402 11.199z"/>
  <path d="m103.6 145.6c15.961 0 22.793 6.2148 34.16 16.801 13.105 11.93 31.023 28 64.289 28s51.238-16.297 64.344-28c11.199-10.359 18.199-16.801 34.16-16.801 15.961 0 22.848 6.2148 34.215 16.801 13.105 11.93 31.023 28 64.344 28 33.32 0 51.297-16.297 64.398-28 11.199-10.305 18.258-16.801 34.273-16.801s22.848 6.2734 34.215 16.801c13.16 11.93 31.078 28 64.398 28v-0.003906c8.0039 0 15.398-4.2695 19.402-11.199 4-6.9297 4-15.469 0-22.398-4.0039-6.9297-11.398-11.199-19.402-11.199-16.016 0-22.848-6.2734-34.273-16.801-13.105-11.93-31.023-28-64.344-28s-51.297 16.297-64.398 28c-11.199 10.305-18.258 16.801-34.273 16.801s-22.848-6.2148-34.215-16.801c-13.105-11.93-31.023-28-64.344-28-33.32 0-51.352 16.297-64.285 28-11.199 10.359-18.258 16.801-34.215 16.801-15.961 0-22.793-6.2148-34.16-16.801-13.051-11.703-31.027-28-64.289-28-8.0039 0-15.398 4.2695-19.402 11.199-4 6.9297-4 15.469 0 22.398 4.0039 6.9336 11.398 11.203 19.402 11.203z"/>
  <path d="m103.6 414.4c15.961 0 22.793 6.2148 34.16 16.801 13.105 11.93 31.023 28 64.289 28s51.238-16.297 64.344-28c11.199-10.359 18.199-16.801 34.16-16.801 15.961 0 22.848 6.2148 34.215 16.801 13.105 11.93 31.023 28 64.344 28 33.32 0 51.297-16.297 64.398-28 11.199-10.305 18.258-16.801 34.273-16.801s22.848 6.2734 34.215 16.801c13.16 11.93 31.078 28 64.398 28 8.0039 0 15.398-4.2695 19.402-11.199 4-6.9297 4-15.469 0-22.398-4.0039-6.9336-11.398-11.203-19.402-11.203-16.016 0-22.848-6.2734-34.273-16.801-13.105-11.93-31.023-28-64.344-28s-51.297 16.297-64.398 28c-11.199 10.305-18.258 16.801-34.273 16.801s-22.848-6.2148-34.215-16.801c-13.105-11.93-31.023-28-64.344-28-33.32 0.003906-51.352 16.297-64.285 28.004-11.199 10.359-18.258 16.801-34.215 16.801-15.961 0-22.793-6.2148-34.16-16.801-13.051-11.707-31.027-28-64.289-28-8.0039 0-15.398 4.2695-19.402 11.199-4 6.9297-4 15.469 0 22.398 4.0039 6.9297 11.398 11.199 19.402 11.199z"/>
  
 </g>
</svg>
